<?xml version="1.0" encoding="utf-8"?>
<!-- Generator: Adobe Illustrator 16.0.4, SVG Export Plug-In . SVG Version: 6.00 Build 0)  -->
<!DOCTYPE svg PUBLIC "-//W3C//DTD SVG 1.1//EN" "http://www.w3.org/Graphics/SVG/1.1/DTD/svg11.dtd">
<svg version="1.1" id="Calque_1" xmlns="http://www.w3.org/2000/svg" xmlns:xlink="http://www.w3.org/1999/xlink" x="0px" y="0px"
	 width="128px" height="128px" viewBox="0 0 128 128" enable-background="new 0 0 128 128" xml:space="preserve">
<g id="Calque_1_1_">
	<g>
		<g>
			<path d="M91.947,107.268c-2.482,1.217-4.349,2.166-4.186,5.194c0.122,2.232-0.326,4.531-0.761,6.751
				c-0.424,2.169-2.334,3.058-4.068,3.879c-3.852,1.823-7.479,1.665-10.755-1.476c-0.747-0.717-1.877-1.021-2.827-1.523
				c-0.691-0.363-1.585-0.57-2.031-1.138c-2.275-2.891-5.843-3.522-8.733-5.319c-0.189-0.118-0.527,0.012-0.822,0.029
				c0.777,2.734,5.773,7.934,7.129,7.551c0.856,1.374,1.709,2.74,2.727,4.37c-0.929,0.15-1.878,0.458-2.817,0.431
				c-8.434-0.243-16.633-1.669-24.43-5.095c-1.228-0.54-1.47-1.262-1.884-2.692c-0.943-3.262,0.345-5.663,1.297-8.393
				c0.305-0.874-0.253-2.068-0.442-3.111c-0.373-2.057-1.098-4.122-1.021-6.16c0.046-1.247,1.203-2.542,2.094-3.614
				c0.291-0.349,1.408-0.276,1.997-0.028c2.04,0.859,4.014,1.882,6.013,2.841c0.177-0.249,0.355-0.501,0.532-0.751
				c-1.519-2.039-3.037-4.078-4.556-6.117c-0.186,0.093-0.371,0.186-0.557,0.279c0.339-1.547,0.745-3.083,0.986-4.646
				c0.101-0.654,0.085-1.535-0.268-2.02c-2.054-2.823-4.19-5.587-6.375-8.307c-0.668-0.829-1.576-1.798-2.707-0.627
				c-1.025,1.063-0.088,1.721,0.567,2.558c0.531,0.679,0.789,1.661,0.93,2.549c0.173,1.083,0.242,2.232,0.063,3.302
				c-0.081,0.482-0.895,1.218-1.338,1.19c-1.983-0.119-3.234-1.939-3.243-4.457c-0.003-0.784,0.07-1.568,0.118-2.584
				c-1.014,0.209-1.813,0.374-2.878,0.593c0.333-1.505,0.624-2.816,0.914-4.13c0.145,0.147,0.29,0.294,0.436,0.441
				c1.505-1.506,3.488-2.785,4.328-4.608c0.474-1.029-0.864-2.987-1.521-4.465c-0.461-1.038-1.062-2.042-1.767-2.925
				c-0.401-0.504-1.151-1.047-1.708-1.01c-0.631,0.042-1.236,0.692-1.829,1.115c-0.982,0.7-1.873,1.675-2.958,2.002
				c-0.349,0.104-1.459-1.377-1.759-2.29c-2.559-7.808-4.354-15.782-4.213-24.069c0.022-1.343,0.754-2.674,1.163-4.009
				c0.084-0.273,0.338-0.588,0.268-0.8c-0.991-3.022,1.026-4.777,2.666-6.712c1.771-2.09,3.441-4.272,5.273-6.306
				c2.37-2.632,4.843-5.168,7.296-7.72c0.977-1.016,4.644-0.148,5.71,1.218c0.548,0.702,1.208,1.393,1.963,1.83
				c1.425,0.824,2.8,1.562,2.009,3.771c0.18,0.098,0.361,0.196,0.542,0.294c3.138-2.217,6.291-4.413,9.377-6.703
				c0.203-0.151,0.037-1.136-0.235-1.537c-0.283-0.416-0.906-0.594-1.429-0.905c0.228-0.187,0.386-0.361,0.42-0.339
				c2.452,1.604,4.784,0.914,7.31-0.03c4.945-1.848,10.136-2.114,15.368-1.761c4.392,0.296,8.295,1.886,11.675,4.686
				c0.966,0.801,1.779,1.95,2.309,3.106c1.258,2.744,0.019,5.003-3.579,6.672c0.168,0.505,0.21,1.148,0.54,1.538
				c1.782,2.09,3.635,4.118,5.462,6.168c0.231,0.259,0.573,0.488,0.666,0.792c1.639,5.362,3.342,10.708,4.785,16.124
				c0.294,1.11-0.103,2.679-0.709,3.717c-1.704,2.924-6.294,4.612-9.321,3.119c-3.593-1.774-6.919-4.114-10.342-6.238
				c-0.653-0.405-1.221-0.951-1.829-1.431c-0.147,0.171-0.296,0.342-0.443,0.513c1.59,1.366,3.139,2.783,4.779,4.082
				c1.191,0.943,2.523,1.704,3.744,2.61c0.265,0.195,0.33,0.67,0.681,1.45c1.449,0.581,3.434,1.377,5.639,2.263
				c0-0.597,0-0.954,0-1.322c2.12-0.486,4.292-0.985,6.864-1.576c-1.344,2.233-3.204,2.934-5.091,3.57
				c-0.682,0.229-1.425,0.271-2.1,0.515c-2.501,0.903-2.968,2.013-1.87,4.295c-2.55,2.248-4.252,1.623-5.191-1.59
				c-0.384-1.315-1.383-2.575-2.398-3.537c-1.36-1.288-3.006-2.264-4.532-3.37c-1.164-0.845-2.084-0.626-2.479,0.786
				c-0.644,2.304-1.157,4.645-1.76,6.96c-0.199,0.769-0.58,1.494-0.736,2.269c-0.252,1.251-0.388,2.524-0.639,4.24
				c7.615-4.305,14.356-2.149,16.764,5.077c0.711-0.898,1.249-1.511,1.709-2.179c0.957-1.393,1.94-1.412,2.822,0.002
				c0.27,0.431,0.616,0.874,0.697,1.351c0.132,0.779,0.075,1.591,0.1,2.39c-0.759-0.07-1.707,0.129-2.238-0.261
				c-1.494-1.1-2.631-0.13-3.797,0.455c-1.204,0.604-0.603,1.525-0.483,2.569c0.105,0.942-0.993,2.025-1.643,3.195
				c0.153,0.09,0.411,0.301,0.707,0.406c1.941,0.696,2.965,2.157,2.557,3.694c-0.939,3.539-1.396,3.904-4.261,3.462
				c-0.496-0.076-1.002-0.097-1.503-0.138c-2.419-0.204-2.983-1.395-1.754-3.499c0.408-0.701,0.567-1.55,0.842-2.332
				c-0.863-0.064-1.729-0.187-2.593-0.175c-0.786,0.01-1.604,0.354-2.353,0.226c-3.704-0.638-5.44,1.754-6.695,4.594
				c-0.347,0.783,0.245,1.992,0.405,3.005c0.656-0.18,1.302-0.438,1.968-0.515c0.57-0.063,1.265-0.091,1.721,0.182
				c0.513,0.31,0.874,0.939,1.208,1.489c2.393,3.95,6.045,4.694,9.695,1.933c0.274-0.209,0.598-0.533,0.643-0.842
				c0.357-2.488,1.818-2.38,3.797-2.059c1.812,0.294,3.73,0.038,5.589-0.123c1.532-0.132,2.592-0.865,2.392-2.704
				c-0.033-0.302,0.199-0.633,0.846-1.036c0.211,0.746,0.677,1.527,0.583,2.23c-0.298,2.216-0.644,4.452-1.285,6.585
				c-0.483,1.612-0.327,2.659,1.175,3.468c2.549,1.373,5.058,2.823,7.6,4.206c1.518,0.824,1.918,1.818,0.393,2.954
				c-4.117,3.066-8.274,6.076-12.431,9.089c-0.262,0.189-0.646,0.203-1.2,0.366C92.93,114.772,92.454,111.136,91.947,107.268z
				 M67.248,91.555c-0.411-1.858-0.926-3.38-1.038-4.932c-0.096-1.313-0.143-2.959,0.527-3.933c1.198-1.743,2.978-3.067,4.465-4.615
				c0.762-0.792,1.224-1.653,0.07-2.589c-1.423-1.157-2.792-2.388-4.307-3.691c-0.241,0.438-0.576,1.335-1.15,2.026
				c-1.319,1.587-2.515,3.483-4.201,4.503c-2.334,1.413-5.073,2.137-7.626,3.148c-0.625-2.731-0.643-2.646-3.95-3.34
				c-1.604-0.337-3.125-1.069-4.686-1.613c-1.439-0.501-2.883-0.99-4.325-1.484c-0.15,0.25-0.299,0.498-0.449,0.749
				c1.163,1.107,2.192,2.435,3.52,3.274c1.855,1.171,4.05,1.796,5.882,2.996c1.715,1.125,3.186,2.505,5.471,1.894
				c0.346-0.093,0.979,0.323,1.264,0.68c2.361,2.957,5.898,4.174,8.852,6.246C65.949,91.144,66.449,91.239,67.248,91.555z
				 M96.418,47.125c0.052-0.512,0.31-1.174,0.144-1.698c-1.072-3.389-2.067-6.821-3.439-10.086c-0.698-1.66-1.932-3.97-3.278-4.256
				c-1.923-0.408-2.835-1.201-3.698-2.708c-0.26-0.451-1.138-0.911-1.562-0.782c-0.426,0.129-0.79,0.956-0.898,1.532
				c-0.099,0.516,0.112,1.136,0.315,1.658c1.969,5.022,3.952,10.037,5.96,15.043c0.323,0.802,0.785,1.546,1.182,2.317
				c0.198-0.085,0.396-0.169,0.593-0.253c0.8-4.609-3.822-8.015-2.927-12.682c0.584,0.757,0.992,1.582,1.382,2.417
				c0.517,1.113,1.001,2.242,1.533,3.348c0.599,1.251,1.095,2.59,1.899,3.693C94.284,45.578,95.331,46.197,96.418,47.125z
				 M59.783,31.337c-0.06,0.229-0.12,0.456-0.18,0.683c0.761,0.267,1.59,0.871,2.27,0.73c1.525-0.315,3.008-0.929,4.442-1.574
				c0.497-0.223,0.801-0.894,1.193-1.359c-0.516-0.25-1.127-0.82-1.531-0.697C63.884,29.762,61.843,30.581,59.783,31.337z
				 M83.975,75.329c-1.104,0.528-2.209,1.057-3.312,1.584C82.419,77.843,83.582,77.447,83.975,75.329z M48.103,86.492
				c-0.37,0.144-0.738,0.288-1.108,0.433c0.414,0.926,0.828,1.852,1.242,2.777c0.26-0.099,0.519-0.198,0.778-0.297
				C48.711,88.435,48.407,87.464,48.103,86.492z"/>
			<path d="M52.731,16.638c-1.464,1.333-2.851,1.879-4.282,0.43c-0.253-0.256-0.121-1.43-0.009-1.455
				C49.953,15.276,51.538,14.874,52.731,16.638z"/>
			<path d="M46.915,11.127c0.469,2.443-0.41,3.033-1.726,3.006c-0.417-0.009-0.822-0.627-1.232-0.965
				C44.836,12.561,45.717,11.954,46.915,11.127z"/>
			<path d="M97.989,87.473c0.202-1.074,0.405-2.15,0.607-3.225c0.243,0.038,0.487,0.076,0.73,0.114
				c-0.131,1.09-0.262,2.18-0.392,3.27C98.619,87.579,98.305,87.525,97.989,87.473z"/>
		</g>
	</g>
	<g>
		<path fill="#1D1D1B" d="M64,128C28.71,128,0,99.289,0,64C0,28.71,28.71,0,64,0c35.29,0,64,28.71,64,64
			C127.999,99.289,99.289,128,64,128z M64,4.398C31.097,4.398,4.33,31.135,4.33,64c0,32.865,26.767,59.601,59.669,59.601
			c32.903,0,59.67-26.736,59.67-59.601C123.67,31.136,96.902,4.398,64,4.398z"/>
	</g>
</g>
<g id="Calque_2" display="none">
</g>
</svg>
