<?xml version="1.0" encoding="utf-8"?>
<!-- Generator: Adobe Illustrator 16.0.4, SVG Export Plug-In . SVG Version: 6.00 Build 0)  -->
<!DOCTYPE svg PUBLIC "-//W3C//DTD SVG 1.1//EN" "http://www.w3.org/Graphics/SVG/1.1/DTD/svg11.dtd">
<svg version="1.1" id="Calque_1" xmlns="http://www.w3.org/2000/svg" xmlns:xlink="http://www.w3.org/1999/xlink" x="0px" y="0px"
	 width="84.047px" height="100px" viewBox="0 0 84.047 100" enable-background="new 0 0 84.047 100" xml:space="preserve">
<g id="Layer_1">
	<rect x="15.68" y="70.384" transform="matrix(1 -0.0021 0.0021 1 -0.1527 0.0607)" fill="#FFFFFF" width="27.572" height="7.947"/>
	
		<rect x="15.717" y="81.133" transform="matrix(1 -0.0021 0.0021 1 -0.1808 0.0629)" fill="#FFFFFF" width="27.573" height="7.949"/>
	<rect x="15.774" y="91.86" transform="matrix(1 -0.0021 0.0021 1 -0.1968 0.0609)" fill="#FFFFFF" width="27.573" height="7.947"/>
	<g>
		<path fill="#FFFFFF" d="M31.691,31.444l0.024,11.45l11.451-0.024C43.152,36.545,38.016,31.431,31.691,31.444z"/>
		<path fill="#FFFFFF" d="M20.267,42.917c0.013,6.326,5.149,11.44,11.473,11.426l-0.024-11.45L20.267,42.917z"/>
	</g>
	<path fill="#FFFFFF" d="M1,37.816c0.025,12.018,5.677,22.715,14.458,29.592l31.157-0.131L46.55,85.369l15.05,4.578
		c6.528,1.178,14.851,0.689,14.813-17.088l-0.022-10.525l5.05-0.012c1.678-0.004,3.043-1.371,3.04-3.041
		c-0.001-0.422-0.078-0.824-0.229-1.182L76.34,38.301c0,0-0.831-8.208-1.579-11.349C71.456,12.82,55.667,0.024,38.576,0.06
		C17.783,0.104,0.955,17.005,1,37.816z M62.876,41.625c-0.005-2.316,1.885-4.2,4.21-4.205c2.306-0.005,4.192,1.871,4.196,4.188
		c0.006,2.33-1.873,4.218-4.178,4.223C64.779,45.835,62.882,43.958,62.876,41.625z M18.15,42.879
		c-0.017-7.492,6.044-13.579,13.536-13.595c7.494-0.016,13.58,6.046,13.596,13.537c0.017,7.495-6.044,13.583-13.538,13.598
		S18.164,50.375,18.15,42.879z"/>
</g>
<g id="Layer_2">
</g>
</svg>
