<?xml version="1.0" encoding="utf-8"?>
<!-- Generator: Adobe Illustrator 16.0.4, SVG Export Plug-In . SVG Version: 6.00 Build 0)  -->
<!DOCTYPE svg PUBLIC "-//W3C//DTD SVG 1.1//EN" "http://www.w3.org/Graphics/SVG/1.1/DTD/svg11.dtd">
<svg version="1.1" id="Calque_1" xmlns="http://www.w3.org/2000/svg" xmlns:xlink="http://www.w3.org/1999/xlink" x="0px" y="0px"
	 width="128px" height="128px" viewBox="0 0 128 128" enable-background="new 0 0 128 128" xml:space="preserve">
<g id="Calque_2" display="none">
</g>
<g id="Calque_1_1_">
	<g>
		<g>
			<path d="M89.917,106.268c-2.482,1.217-4.35,2.166-4.186,5.194c0.119,2.231-0.326,4.531-0.764,6.751
				c-0.424,2.169-2.334,3.059-4.066,3.879c-3.854,1.823-7.479,1.665-10.757-1.476c-0.745-0.718-1.877-1.021-2.825-1.523
				c-0.69-0.362-1.584-0.569-2.031-1.138c-2.274-2.891-5.842-3.521-8.732-5.319c-0.189-0.118-0.527,0.013-0.822,0.029
				c0.777,2.733,5.773,7.935,7.129,7.551c0.854,1.374,1.709,2.74,2.728,4.37c-0.929,0.15-1.878,0.458-2.817,0.432
				c-8.434-0.244-16.633-1.67-24.43-5.096c-1.228-0.54-1.47-1.262-1.884-2.691c-0.943-3.263,0.345-5.664,1.297-8.394
				c0.305-0.874-0.253-2.067-0.442-3.11c-0.372-2.058-1.098-4.123-1.021-6.16c0.046-1.248,1.203-2.543,2.094-3.612
				c0.291-0.351,1.408-0.276,1.997-0.028c2.04,0.859,4.015,1.885,6.013,2.844c0.177-0.25,0.355-0.502,0.532-0.752
				c-1.52-2.039-3.037-4.078-4.556-6.117c-0.187,0.094-0.371,0.187-0.557,0.277c0.338-1.547,0.744-3.082,0.985-4.646
				c0.101-0.653,0.085-1.534-0.269-2.021c-2.054-2.822-4.189-5.588-6.375-8.308c-0.668-0.829-1.576-1.8-2.707-0.627
				c-1.024,1.062-0.088,1.721,0.567,2.558c0.531,0.68,0.789,1.661,0.931,2.551c0.172,1.082,0.242,2.23,0.062,3.301
				c-0.081,0.481-0.895,1.22-1.338,1.189c-1.982-0.117-3.234-1.938-3.243-4.457c-0.003-0.783,0.07-1.566,0.118-2.584
				c-1.014,0.209-1.812,0.374-2.878,0.594c0.333-1.504,0.624-2.814,0.914-4.129c0.145,0.146,0.29,0.293,0.436,0.439
				c1.505-1.506,3.488-2.785,4.328-4.607c0.474-1.029-0.864-2.985-1.521-4.466c-0.461-1.038-1.062-2.042-1.768-2.925
				c-0.4-0.504-1.15-1.047-1.708-1.01c-0.631,0.042-1.235,0.693-1.829,1.115c-0.982,0.701-1.873,1.676-2.957,2.002
				c-0.35,0.104-1.459-1.377-1.76-2.289c-2.559-7.811-4.354-15.782-4.213-24.069c0.021-1.343,0.754-2.674,1.163-4.009
				c0.084-0.273,0.338-0.588,0.269-0.8c-0.992-3.022,1.025-4.777,2.666-6.712c1.771-2.09,3.44-4.272,5.272-6.306
				c2.37-2.632,4.843-5.168,7.296-7.72c0.977-1.016,4.645-0.148,5.71,1.218c0.548,0.702,1.208,1.393,1.963,1.83
				c1.425,0.824,2.801,1.562,2.009,3.771c0.18,0.098,0.361,0.196,0.542,0.294c3.139-2.217,6.291-4.413,9.377-6.703
				c0.203-0.151,0.037-1.136-0.234-1.537c-0.283-0.416-0.906-0.594-1.43-0.905c0.229-0.187,0.387-0.361,0.42-0.339
				c2.453,1.604,4.785,0.914,7.311-0.03c4.945-1.848,10.136-2.114,15.368-1.761c4.392,0.296,8.295,1.886,11.675,4.686
				c0.966,0.801,1.779,1.95,2.309,3.106c1.258,2.744,0.021,5.003-3.578,6.672c0.168,0.505,0.209,1.148,0.539,1.538
				c1.782,2.09,3.635,4.118,5.463,6.168c0.23,0.259,0.572,0.488,0.666,0.792c1.641,5.362,3.344,10.708,4.785,16.124
				c0.293,1.11-0.104,2.679-0.709,3.717c-1.705,2.924-6.295,4.612-9.322,3.119c-3.592-1.774-6.918-4.114-10.342-6.238
				c-0.65-0.405-1.221-0.951-1.828-1.431c-0.146,0.171-0.297,0.342-0.441,0.513c1.59,1.366,3.141,2.783,4.777,4.082
				c1.19,0.943,2.522,1.704,3.744,2.61c0.267,0.195,0.33,0.67,0.683,1.45c1.446,0.581,3.435,1.377,5.639,2.263
				c0-0.597,0-0.954,0-1.322c2.12-0.486,4.292-0.985,6.864-1.576c-1.346,2.233-3.204,2.934-5.094,3.57
				c-0.682,0.229-1.424,0.271-2.1,0.515c-2.5,0.903-2.968,2.013-1.869,4.295c-2.551,2.248-4.252,1.623-5.189-1.59
				c-0.387-1.315-1.385-2.575-2.396-3.537c-1.359-1.288-3.008-2.264-4.531-3.37c-1.164-0.845-2.084-0.626-2.479,0.786
				c-0.644,2.304-1.157,4.645-1.76,6.959c-0.199,0.77-0.58,1.494-0.736,2.27c-0.252,1.251-0.388,2.523-0.639,4.24
				c7.614-4.305,14.356-2.149,16.764,5.076c0.712-0.897,1.249-1.51,1.709-2.178c0.957-1.396,1.94-1.412,2.822,0.002
				c0.271,0.43,0.616,0.873,0.696,1.351c0.133,0.778,0.076,1.591,0.101,2.39c-0.759-0.07-1.707,0.129-2.237-0.261
				c-1.494-1.101-2.632-0.13-3.798,0.455c-1.204,0.604-0.603,1.524-0.483,2.569c0.105,0.939-0.99,2.022-1.643,3.192
				c0.153,0.093,0.411,0.304,0.707,0.406c1.941,0.694,2.965,2.155,2.557,3.692c-0.938,3.539-1.396,3.903-4.26,3.461
				c-0.496-0.073-1.003-0.096-1.504-0.137c-2.419-0.205-2.982-1.396-1.754-3.5c0.408-0.701,0.566-1.55,0.842-2.332
				c-0.863-0.062-1.729-0.187-2.593-0.175c-0.786,0.011-1.604,0.354-2.353,0.226c-3.705-0.637-5.44,1.754-6.695,4.597
				c-0.348,0.78,0.245,1.989,0.404,3.005c0.656-0.182,1.303-0.438,1.969-0.518c0.57-0.062,1.266-0.09,1.721,0.185
				c0.514,0.312,0.874,0.938,1.208,1.489c2.394,3.947,6.046,4.691,9.695,1.933c0.274-0.209,0.598-0.53,0.644-0.842
				c0.356-2.488,1.817-2.38,3.797-2.062c1.812,0.295,3.729,0.039,5.588-0.123c1.533-0.131,2.593-0.862,2.395-2.703
				c-0.033-0.303,0.198-0.633,0.846-1.034c0.213,0.743,0.68,1.524,0.584,2.229c-0.299,2.218-0.645,4.452-1.283,6.587
				c-0.483,1.61-0.328,2.657,1.174,3.467c2.549,1.373,5.059,2.824,7.601,4.207c1.519,0.824,1.918,1.816,0.394,2.953
				c-4.116,3.065-8.272,6.075-12.432,9.09c-0.262,0.188-0.646,0.203-1.199,0.365C90.899,113.771,90.424,110.136,89.917,106.268z
				 M65.218,90.555c-0.411-1.855-0.926-3.38-1.038-4.932c-0.097-1.312-0.144-2.959,0.526-3.934c1.199-1.742,2.979-3.066,4.466-4.614
				c0.762-0.792,1.224-1.653,0.069-2.589c-1.422-1.157-2.791-2.389-4.309-3.691c-0.238,0.438-0.574,1.335-1.148,2.025
				c-1.318,1.588-2.517,3.484-4.203,4.504c-2.334,1.412-5.072,2.137-7.625,3.148c-0.625-2.731-0.644-2.646-3.95-3.343
				c-1.604-0.337-3.125-1.067-4.686-1.61c-1.439-0.502-2.884-0.99-4.326-1.484c-0.149,0.25-0.299,0.498-0.448,0.749
				c1.163,1.106,2.192,2.435,3.521,3.274c1.854,1.17,4.05,1.795,5.882,2.996c1.715,1.125,3.186,2.504,5.471,1.894
				c0.346-0.093,0.979,0.323,1.264,0.68c2.361,2.957,5.898,4.174,8.854,6.246C63.919,90.145,64.419,90.239,65.218,90.555z
				 M94.388,46.125c0.053-0.512,0.311-1.174,0.145-1.698c-1.07-3.389-2.065-6.821-3.438-10.086c-0.698-1.66-1.934-3.97-3.275-4.256
				c-1.926-0.408-2.838-1.201-3.699-2.708c-0.26-0.451-1.14-0.911-1.562-0.782c-0.426,0.129-0.79,0.956-0.896,1.532
				c-0.101,0.516,0.11,1.136,0.313,1.658c1.97,5.022,3.952,10.037,5.96,15.043c0.323,0.802,0.785,1.546,1.184,2.317
				c0.197-0.085,0.396-0.169,0.593-0.253c0.801-4.609-3.821-8.015-2.927-12.682c0.584,0.757,0.99,1.582,1.381,2.417
				c0.519,1.113,1.003,2.242,1.533,3.348c0.601,1.251,1.097,2.59,1.898,3.693C92.254,44.578,93.301,45.197,94.388,46.125z
				 M57.753,30.337c-0.061,0.229-0.12,0.456-0.18,0.683c0.76,0.267,1.59,0.871,2.27,0.73c1.525-0.315,3.008-0.929,4.441-1.574
				c0.498-0.223,0.802-0.894,1.191-1.359c-0.516-0.25-1.127-0.82-1.529-0.697C61.854,28.762,59.812,29.581,57.753,30.337z
				 M81.944,74.329c-1.104,0.528-2.209,1.057-3.312,1.584C80.389,76.843,81.552,76.447,81.944,74.329z M46.073,85.492
				c-0.371,0.144-0.738,0.287-1.108,0.433c0.414,0.927,0.828,1.853,1.241,2.777c0.261-0.099,0.52-0.198,0.779-0.298
				C46.681,87.436,46.377,86.464,46.073,85.492z"/>
		</g>
	</g>
	<g>
		<path d="M64,127C28.71,127,0,98.289,0,63C0,27.71,28.71-1,64-1s64,28.71,64,64C127.999,98.289,99.289,127,64,127z M64,3.398
			C31.097,3.398,4.33,30.135,4.33,63s26.767,59.602,59.669,59.602c32.903,0,59.67-26.734,59.67-59.602
			C123.67,30.136,96.902,3.398,64,3.398z"/>
	</g>
</g>
</svg>
