<?xml version="1.0" encoding="utf-8"?>
<!-- Generator: Adobe Illustrator 16.0.4, SVG Export Plug-In . SVG Version: 6.00 Build 0)  -->
<!DOCTYPE svg PUBLIC "-//W3C//DTD SVG 1.1//EN" "http://www.w3.org/Graphics/SVG/1.1/DTD/svg11.dtd">
<svg version="1.1" xmlns="http://www.w3.org/2000/svg" xmlns:xlink="http://www.w3.org/1999/xlink" x="0px" y="0px"
	 width="595.28px" height="841.89px" viewBox="0 0 595.28 841.89" enable-background="new 0 0 595.28 841.89" xml:space="preserve">
<g id="Calque_1">
	<g>
		<g>
			<path fill-rule="evenodd" clip-rule="evenodd" d="M326.344,362.728c-5.73,2.765-10.043,4.923-9.664,11.807
				c0.281,5.075-0.755,10.299-1.758,15.348c-0.979,4.928-5.391,6.948-9.396,8.815c-8.896,4.145-17.273,3.784-24.836-3.354
				c-1.728-1.631-4.337-2.322-6.533-3.462c-1.596-0.827-3.657-1.298-4.688-2.587c-5.254-6.572-13.494-8.007-20.17-12.093
				c-0.437-0.267-1.217,0.029-1.898,0.067c1.796,6.216,13.333,18.036,16.464,17.166c1.979,3.122,3.948,6.227,6.298,9.932
				c-2.146,0.342-4.337,1.042-6.507,0.98c-19.475-0.553-38.413-3.793-56.418-11.582c-2.836-1.228-3.395-2.868-4.351-6.12
				c-2.18-7.415,0.794-12.872,2.995-19.077c0.705-1.987-0.586-4.702-1.022-7.073c-0.86-4.675-2.535-9.371-2.357-14.002
				c0.108-2.836,2.778-5.778,4.838-8.217c0.67-0.793,3.251-0.627,4.611-0.064c4.712,1.954,9.271,4.277,13.887,6.459
				c0.41-0.568,0.82-1.139,1.229-1.709c-3.507-4.635-7.014-9.269-10.521-13.904c-0.429,0.211-0.857,0.422-1.286,0.633
				c0.784-3.515,1.719-7.007,2.278-10.559c0.233-1.486,0.196-3.488-0.619-4.59c-4.744-6.417-9.677-12.7-14.725-18.881
				c-1.542-1.888-3.639-4.088-6.249-1.427c-2.369,2.417-0.204,3.913,1.31,5.816c1.226,1.542,1.821,3.776,2.147,5.792
				c0.399,2.463,0.56,5.074,0.146,7.506c-0.187,1.096-2.066,2.767-3.091,2.706c-4.578-0.271-7.469-4.409-7.488-10.132
				c-0.006-1.783,0.161-3.566,0.274-5.873c-2.344,0.475-4.189,0.848-6.648,1.346c0.769-3.42,1.439-6.403,2.109-9.387
				c0.335,0.334,0.67,0.669,1.006,1.004c3.475-3.424,8.057-6.332,9.995-10.477c1.095-2.34-1.996-6.789-3.512-10.148
				c-1.064-2.359-2.455-4.641-4.08-6.65c-0.925-1.145-2.658-2.38-3.943-2.295c-1.459,0.096-2.857,1.574-4.225,2.533
				c-2.269,1.591-4.327,3.807-6.832,4.55c-0.805,0.239-3.371-3.129-4.062-5.204c-5.91-17.749-10.053-35.875-9.73-54.713
				c0.052-3.052,1.741-6.079,2.686-9.113c0.193-0.621,0.779-1.336,0.618-1.818c-2.289-6.87,2.369-10.861,6.156-15.26
				c4.09-4.751,7.949-9.711,12.178-14.333c5.473-5.983,11.185-11.747,16.851-17.55c2.254-2.308,10.724-0.336,13.186,2.769
				c1.265,1.594,2.791,3.166,4.533,4.159c3.29,1.873,6.468,3.549,4.639,8.57c0.417,0.223,0.834,0.445,1.251,0.669
				c7.246-5.04,14.529-10.031,21.655-15.236c0.469-0.343,0.087-2.582-0.543-3.494c-0.654-0.946-2.091-1.351-3.3-2.058
				c0.525-0.424,0.892-0.82,0.97-0.77c5.663,3.645,11.047,2.078,16.881-0.067c11.422-4.2,23.409-4.806,35.492-4.003
				c10.144,0.674,19.155,4.288,26.963,10.652c2.232,1.82,4.108,4.432,5.331,7.061c2.904,6.237,0.042,11.371-8.267,15.167
				c0.389,1.148,0.485,2.61,1.25,3.495c4.113,4.752,8.394,9.361,12.613,14.022c0.533,0.59,1.322,1.109,1.538,1.802
				c3.785,12.188,7.717,24.34,11.049,36.653c0.683,2.523-0.235,6.088-1.635,8.45c-3.937,6.646-14.537,10.485-21.526,7.09
				c-8.3-4.033-15.979-9.352-23.885-14.181c-1.508-0.921-2.82-2.16-4.224-3.252c-0.341,0.389-0.683,0.777-1.024,1.166
				c3.669,3.106,7.25,6.326,11.039,9.279c2.751,2.144,5.825,3.872,8.646,5.933c0.61,0.445,0.759,1.524,1.571,3.296
				c3.346,1.321,7.929,3.131,13.021,5.143c0-1.357,0-2.168,0-3.005c4.898-1.106,9.911-2.239,15.854-3.583
				c-3.104,5.078-7.4,6.671-11.758,8.115c-1.572,0.522-3.29,0.618-4.848,1.171c-5.776,2.053-6.854,4.575-4.318,9.761
				c-5.887,5.111-9.821,3.691-11.99-3.612c-0.888-2.99-3.194-5.854-5.54-8.041c-3.14-2.928-6.941-5.146-10.465-7.661
				c-2.689-1.921-4.813-1.424-5.726,1.787c-1.486,5.236-2.672,10.556-4.062,15.821c-0.461,1.748-1.341,3.396-1.701,5.158
				c-0.583,2.841-0.895,5.737-1.473,9.638c17.586-9.785,33.151-4.887,38.71,11.542c1.641-2.044,2.888-3.435,3.949-4.954
				c2.209-3.165,4.48-3.209,6.517,0.004c0.622,0.98,1.423,1.986,1.611,3.072c0.306,1.771,0.176,3.616,0.229,5.431
				c-1.751-0.159-3.942,0.292-5.167-0.593c-3.453-2.499-6.076-0.295-8.769,1.035c-2.783,1.375-1.393,3.467-1.119,5.841
				c0.246,2.142-2.291,4.604-3.793,7.264c0.354,0.204,0.951,0.683,1.634,0.923c4.484,1.582,6.847,4.904,5.904,8.396
				c-2.17,8.045-3.222,8.876-9.84,7.871c-1.146-0.174-2.313-0.219-3.471-0.314c-5.584-0.465-6.889-3.168-4.051-7.953
				c0.943-1.593,1.313-3.524,1.946-5.302c-1.996-0.146-3.993-0.424-5.987-0.398c-1.817,0.023-3.703,0.807-5.434,0.514
				c-8.555-1.449-12.564,3.987-15.464,10.444c-0.798,1.777,0.567,4.526,0.939,6.829c1.512-0.408,3.004-0.996,4.542-1.168
				c1.317-0.146,2.923-0.209,3.973,0.412c1.186,0.703,2.021,2.134,2.791,3.384c5.528,8.981,13.959,10.671,22.391,4.392
				c0.634-0.473,1.381-1.211,1.483-1.912c0.828-5.656,4.203-5.41,8.771-4.68c4.185,0.669,8.613,0.087,12.906-0.279
				c3.538-0.301,5.986-1.969,5.521-6.147c-0.076-0.685,0.464-1.438,1.956-2.354c0.484,1.694,1.562,3.47,1.343,5.068
				c-0.687,5.038-1.485,10.123-2.966,14.97c-1.118,3.663-0.754,6.043,2.715,7.882c5.885,3.121,11.677,6.417,17.55,9.561
				c3.504,1.875,4.427,4.134,0.907,6.714c-9.509,6.971-19.111,13.814-28.709,20.662c-0.604,0.431-1.492,0.463-2.773,0.831
				C328.614,379.787,327.515,371.521,326.344,362.728z M269.305,327.01c-0.951-4.226-2.139-7.684-2.399-11.21
				c-0.221-2.988-0.329-6.727,1.219-8.941c2.768-3.962,6.875-6.973,10.311-10.49c1.758-1.8,2.825-3.757,0.163-5.887
				c-3.289-2.631-6.448-5.425-9.947-8.389c-0.559,0.996-1.331,3.034-2.657,4.606c-3.046,3.608-5.807,7.918-9.7,10.237
				c-5.392,3.211-11.717,4.854-17.614,7.157c-1.442-6.21-1.482-6.015-9.122-7.594c-3.702-0.765-7.215-2.431-10.821-3.667
				c-3.324-1.139-6.658-2.25-9.988-3.373c-0.346,0.566-0.691,1.133-1.036,1.701c2.685,2.52,5.062,5.535,8.129,7.443
				c4.284,2.663,9.353,4.082,13.583,6.812c3.961,2.558,7.359,5.694,12.634,4.304c0.801-0.211,2.262,0.734,2.921,1.547
				c5.453,6.719,13.621,9.485,20.442,14.196C266.305,326.075,267.459,326.293,269.305,327.01z M336.668,226.015
				c0.121-1.163,0.716-2.669,0.333-3.86c-2.476-7.704-4.774-15.506-7.944-22.928c-1.612-3.773-4.46-9.024-7.57-9.674
				c-4.44-0.927-6.545-2.73-8.541-6.156c-0.598-1.025-2.63-2.071-3.607-1.779c-0.983,0.294-1.823,2.173-2.076,3.484
				c-0.226,1.171,0.26,2.583,0.731,3.768c4.544,11.416,9.127,22.815,13.764,34.194c0.744,1.824,1.812,3.516,2.729,5.268
				c0.456-0.192,0.913-0.385,1.369-0.576c1.844-10.477-8.829-18.219-6.761-28.827c1.35,1.72,2.294,3.596,3.191,5.495
				c1.195,2.53,2.313,5.096,3.539,7.611c1.386,2.844,2.53,5.889,4.387,8.396C331.741,222.497,334.157,223.905,336.668,226.015z
				 M252.063,190.127c-0.138,0.518-0.276,1.035-0.414,1.551c1.758,0.605,3.672,1.979,5.241,1.66
				c3.524-0.717,6.948-2.114,10.261-3.579c1.148-0.508,1.849-2.031,2.754-3.09c-1.191-0.568-2.602-1.864-3.536-1.583
				C261.534,186.544,256.82,188.406,252.063,190.127z M307.934,290.126c-2.551,1.201-5.102,2.401-7.651,3.603
				C304.338,295.84,307.025,294.942,307.934,290.126z M225.088,315.501c-0.853,0.328-1.706,0.656-2.559,0.984
				c0.956,2.104,1.913,4.209,2.869,6.314c0.599-0.225,1.198-0.451,1.797-0.676C226.493,319.917,225.791,317.709,225.088,315.501z"/>
			<path fill-rule="evenodd" clip-rule="evenodd" d="M367.03,215.306c-14.634-20.478-29.267-40.957-43.899-61.436
				c19.742,16.669,29.835,40.574,46.152,59.817C368.532,214.228,367.781,214.767,367.03,215.306z"/>
			<path fill-rule="evenodd" clip-rule="evenodd" d="M341.899,195.375c8.428,11.369,16.856,22.737,25.284,34.106
				c-0.465,0.348-0.93,0.694-1.395,1.041c-8.521-11.352-17.044-22.704-25.566-34.056
				C340.781,196.102,341.341,195.739,341.899,195.375z"/>
			<path fill-rule="evenodd" clip-rule="evenodd" d="M235.777,156.712c-3.38,3.029-6.582,4.271-9.888,0.977
				c-0.584-0.583-0.278-3.251-0.022-3.307C229.362,153.616,233.022,152.701,235.777,156.712z"/>
			<path fill-rule="evenodd" clip-rule="evenodd" d="M222.345,144.185c1.082,5.554-0.946,6.895-3.986,6.833
				c-0.962-0.02-1.897-1.424-2.845-2.194C217.546,147.444,219.578,146.064,222.345,144.185z"/>
			<path fill-rule="evenodd" clip-rule="evenodd" d="M340.297,317.732c0.468-2.443,0.935-4.889,1.402-7.331
				c0.563,0.086,1.126,0.172,1.688,0.259c-0.302,2.477-0.604,4.955-0.905,7.433C341.754,317.972,341.025,317.852,340.297,317.732z"
				/>
			<path fill-rule="evenodd" clip-rule="evenodd" fill="#FFFFFF" d="M269.305,327.01c-1.846-0.717-3-0.936-3.884-1.546
				c-6.821-4.711-14.989-7.478-20.442-14.196c-0.659-0.812-2.12-1.758-2.921-1.547c-5.275,1.391-8.673-1.746-12.634-4.304
				c-4.23-2.73-9.298-4.149-13.583-6.812c-3.066-1.908-5.444-4.924-8.129-7.443c0.345-0.568,0.69-1.135,1.036-1.701
				c3.33,1.123,6.664,2.234,9.988,3.373c3.606,1.236,7.119,2.902,10.821,3.667c7.64,1.579,7.68,1.384,9.122,7.594
				c5.897-2.304,12.222-3.946,17.614-7.157c3.894-2.319,6.654-6.629,9.7-10.237c1.326-1.572,2.099-3.61,2.657-4.606
				c3.499,2.964,6.658,5.758,9.947,8.389c2.662,2.13,1.595,4.087-0.163,5.887c-3.436,3.518-7.543,6.528-10.311,10.49
				c-1.548,2.215-1.439,5.953-1.219,8.941C267.166,319.327,268.354,322.785,269.305,327.01z"/>
			<path fill-rule="evenodd" clip-rule="evenodd" fill="#FFFFFF" d="M336.668,226.015c-2.511-2.11-4.927-3.518-6.456-5.583
				c-1.856-2.507-3.001-5.552-4.387-8.396c-1.226-2.515-2.344-5.081-3.539-7.611c-0.897-1.899-1.842-3.775-3.191-5.495
				c-2.068,10.608,8.604,18.35,6.761,28.827c-0.456,0.191-0.913,0.384-1.369,0.576c-0.918-1.752-1.985-3.444-2.729-5.268
				c-4.637-11.378-9.22-22.778-13.764-34.194c-0.472-1.185-0.957-2.597-0.731-3.768c0.253-1.311,1.093-3.19,2.076-3.484
				c0.978-0.292,3.01,0.754,3.607,1.779c1.996,3.426,4.101,5.229,8.541,6.156c3.11,0.649,5.958,5.901,7.57,9.674
				c3.17,7.422,5.469,15.224,7.944,22.928C337.384,223.346,336.789,224.852,336.668,226.015z"/>
			<path fill-rule="evenodd" clip-rule="evenodd" fill="#FFFFFF" d="M252.063,190.127c4.757-1.721,9.471-3.583,14.306-5.041
				c0.935-0.281,2.345,1.015,3.536,1.583c-0.905,1.06-1.605,2.583-2.754,3.09c-3.312,1.465-6.736,2.862-10.261,3.579
				c-1.569,0.319-3.483-1.055-5.241-1.66C251.787,191.162,251.926,190.645,252.063,190.127z"/>
			<path fill-rule="evenodd" clip-rule="evenodd" fill="#FFFFFF" d="M307.934,290.126c-0.908,4.815-3.596,5.714-7.651,3.603
				C302.832,292.528,305.383,291.328,307.934,290.126z"/>
			<path fill-rule="evenodd" clip-rule="evenodd" fill="#FFFFFF" d="M225.088,315.501c0.703,2.208,1.405,4.415,2.107,6.623
				c-0.599,0.225-1.199,0.451-1.797,0.676c-0.956-2.105-1.913-4.21-2.869-6.314C223.383,316.158,224.235,315.83,225.088,315.501z"/>
		</g>
	</g>
	<g>
		<path fill="#1D1D1B" d="M261.802,409.855C180.304,409.855,114,344.591,114,264.373c0-80.219,66.304-145.482,147.802-145.482
			c81.499,0,147.803,65.263,147.803,145.482C409.604,344.591,343.301,409.855,261.802,409.855z M261.802,128.89
			C185.817,128.89,124,189.667,124,264.373s61.817,135.482,137.802,135.482s137.803-60.777,137.803-135.482
			S337.786,128.89,261.802,128.89z"/>
	</g>
</g>
<g id="Calque_3" display="none">
</g>
<g id="Calque_2" display="none">
</g>
</svg>
