<?xml version="1.0" encoding="utf-8"?>
<!-- Generator: Adobe Illustrator 16.0.4, SVG Export Plug-In . SVG Version: 6.00 Build 0)  -->
<!DOCTYPE svg PUBLIC "-//W3C//DTD SVG 1.1//EN" "http://www.w3.org/Graphics/SVG/1.1/DTD/svg11.dtd">
<svg version="1.1" id="Calque_1" xmlns="http://www.w3.org/2000/svg" xmlns:xlink="http://www.w3.org/1999/xlink" x="0px" y="0px"
	 width="128px" height="128px" viewBox="0 0 128 128" enable-background="new 0 0 128 128" xml:space="preserve">
<g id="Calque_1_1_">
	<g>
		<g>
			<path d="M91.947,107.268c-2.482,1.217-4.35,2.166-4.186,5.194c0.12,2.231-0.326,4.531-0.763,6.751
				c-0.424,2.169-2.334,3.059-4.067,3.879c-3.853,1.823-7.479,1.665-10.756-1.476c-0.746-0.718-1.877-1.021-2.826-1.523
				c-0.69-0.362-1.584-0.569-2.031-1.138c-2.274-2.891-5.842-3.521-8.732-5.319c-0.189-0.118-0.527,0.013-0.822,0.029
				c0.777,2.733,5.773,7.935,7.128,7.551c0.855,1.374,1.709,2.74,2.728,4.37c-0.929,0.15-1.878,0.458-2.817,0.432
				c-8.434-0.244-16.633-1.67-24.43-5.096c-1.228-0.54-1.47-1.262-1.884-2.691c-0.943-3.263,0.345-5.664,1.297-8.394
				c0.305-0.874-0.253-2.067-0.442-3.11c-0.373-2.058-1.098-4.123-1.021-6.16c0.046-1.248,1.203-2.543,2.094-3.613
				c0.291-0.35,1.408-0.276,1.997-0.028c2.04,0.859,4.014,1.884,6.013,2.843c0.177-0.25,0.355-0.502,0.532-0.752
				c-1.519-2.039-3.037-4.078-4.556-6.117c-0.186,0.094-0.371,0.187-0.557,0.278c0.339-1.547,0.745-3.083,0.986-4.646
				c0.101-0.653,0.085-1.534-0.268-2.02c-2.054-2.822-4.19-5.588-6.375-8.308c-0.668-0.829-1.576-1.8-2.707-0.627
				c-1.025,1.062-0.088,1.721,0.567,2.558c0.531,0.68,0.789,1.661,0.93,2.551c0.173,1.082,0.242,2.23,0.063,3.301
				c-0.081,0.481-0.895,1.219-1.338,1.189c-1.983-0.117-3.234-1.938-3.243-4.457c-0.003-0.783,0.07-1.566,0.118-2.584
				c-1.014,0.209-1.813,0.374-2.878,0.594c0.333-1.504,0.624-2.815,0.914-4.129c0.145,0.146,0.29,0.293,0.436,0.439
				c1.505-1.506,3.488-2.785,4.328-4.607c0.474-1.029-0.864-2.986-1.521-4.466c-0.461-1.038-1.062-2.042-1.767-2.925
				c-0.401-0.504-1.151-1.047-1.708-1.01c-0.631,0.042-1.236,0.693-1.829,1.115c-0.982,0.701-1.873,1.676-2.958,2.002
				c-0.349,0.104-1.459-1.377-1.759-2.289c-2.559-7.81-4.354-15.782-4.213-24.069c0.022-1.343,0.754-2.674,1.163-4.009
				c0.084-0.273,0.338-0.588,0.268-0.8c-0.991-3.022,1.026-4.777,2.666-6.712c1.771-2.09,3.441-4.272,5.273-6.306
				c2.37-2.632,4.843-5.168,7.296-7.72c0.977-1.016,4.644-0.148,5.71,1.218c0.548,0.702,1.208,1.393,1.963,1.83
				c1.425,0.824,2.8,1.562,2.009,3.771c0.18,0.098,0.361,0.196,0.542,0.294c3.138-2.217,6.291-4.413,9.377-6.703
				c0.203-0.151,0.037-1.136-0.235-1.537c-0.283-0.416-0.906-0.594-1.429-0.905c0.228-0.187,0.386-0.361,0.42-0.339
				c2.452,1.604,4.784,0.914,7.31-0.03c4.945-1.848,10.136-2.114,15.368-1.761c4.392,0.296,8.295,1.886,11.675,4.686
				c0.966,0.801,1.779,1.95,2.309,3.106c1.258,2.744,0.021,5.003-3.578,6.672c0.168,0.505,0.209,1.148,0.539,1.538
				c1.782,2.09,3.635,4.118,5.463,6.168c0.23,0.259,0.572,0.488,0.666,0.792c1.64,5.362,3.343,10.708,4.785,16.124
				c0.293,1.11-0.104,2.679-0.709,3.717c-1.705,2.924-6.295,4.612-9.322,3.119c-3.592-1.774-6.918-4.114-10.342-6.238
				c-0.651-0.405-1.221-0.951-1.828-1.431c-0.146,0.171-0.297,0.342-0.442,0.513c1.59,1.366,3.14,2.783,4.778,4.082
				c1.19,0.943,2.522,1.704,3.744,2.61c0.266,0.195,0.33,0.67,0.682,1.45c1.447,0.581,3.434,1.377,5.639,2.263
				c0-0.597,0-0.954,0-1.322c2.12-0.486,4.292-0.985,6.864-1.576c-1.345,2.233-3.204,2.934-5.093,3.57
				c-0.682,0.229-1.424,0.271-2.1,0.515c-2.5,0.903-2.968,2.013-1.869,4.295c-2.551,2.248-4.252,1.623-5.19-1.59
				c-0.386-1.315-1.384-2.575-2.397-3.537c-1.359-1.288-3.007-2.264-4.531-3.37c-1.164-0.845-2.084-0.626-2.479,0.786
				c-0.644,2.304-1.157,4.645-1.76,6.959c-0.199,0.77-0.58,1.494-0.736,2.27c-0.252,1.251-0.388,2.523-0.639,4.24
				c7.614-4.305,14.356-2.149,16.764,5.076c0.711-0.897,1.249-1.51,1.709-2.178c0.957-1.395,1.94-1.412,2.822,0.002
				c0.271,0.43,0.616,0.873,0.696,1.351c0.133,0.778,0.076,1.591,0.101,2.39c-0.759-0.07-1.707,0.129-2.237-0.261
				c-1.494-1.101-2.632-0.13-3.798,0.455c-1.204,0.604-0.603,1.524-0.483,2.569c0.105,0.94-0.991,2.023-1.643,3.193
				c0.153,0.092,0.411,0.303,0.707,0.406c1.941,0.695,2.965,2.156,2.557,3.693c-0.938,3.539-1.396,3.903-4.261,3.461
				c-0.495-0.074-1.002-0.096-1.503-0.137c-2.419-0.205-2.982-1.396-1.754-3.5c0.408-0.701,0.566-1.55,0.842-2.332
				c-0.863-0.062-1.729-0.187-2.593-0.175c-0.786,0.011-1.604,0.354-2.353,0.226c-3.705-0.637-5.44,1.754-6.695,4.596
				c-0.348,0.781,0.245,1.99,0.404,3.005c0.656-0.181,1.303-0.438,1.969-0.517c0.57-0.062,1.265-0.09,1.721,0.184
				c0.514,0.311,0.874,0.938,1.208,1.489c2.394,3.948,6.045,4.692,9.695,1.933c0.274-0.209,0.598-0.531,0.643-0.842
				c0.357-2.488,1.818-2.38,3.798-2.061c1.812,0.295,3.729,0.039,5.588-0.123c1.533-0.131,2.592-0.863,2.394-2.703
				c-0.033-0.303,0.198-0.633,0.846-1.035c0.212,0.744,0.679,1.525,0.583,2.229c-0.298,2.217-0.644,4.452-1.283,6.586
				c-0.483,1.611-0.328,2.658,1.174,3.467c2.549,1.373,5.059,2.824,7.601,4.207c1.519,0.824,1.918,1.817,0.394,2.953
				c-4.117,3.066-8.273,6.076-12.432,9.09c-0.262,0.188-0.646,0.203-1.199,0.365C92.93,114.771,92.454,111.136,91.947,107.268z
				 M67.248,91.555c-0.411-1.856-0.926-3.38-1.038-4.932c-0.097-1.312-0.144-2.959,0.526-3.934c1.199-1.742,2.979-3.066,4.466-4.614
				c0.762-0.792,1.224-1.653,0.069-2.589c-1.422-1.157-2.791-2.389-4.308-3.691c-0.239,0.438-0.575,1.335-1.149,2.025
				c-1.318,1.588-2.516,3.484-4.202,4.504c-2.334,1.412-5.073,2.137-7.626,3.148c-0.625-2.731-0.643-2.646-3.95-3.342
				c-1.604-0.337-3.125-1.068-4.686-1.611c-1.439-0.502-2.883-0.99-4.325-1.484c-0.15,0.25-0.299,0.498-0.449,0.749
				c1.163,1.106,2.192,2.435,3.52,3.274c1.855,1.17,4.05,1.795,5.882,2.996c1.715,1.125,3.186,2.504,5.471,1.894
				c0.346-0.093,0.979,0.323,1.264,0.68c2.361,2.957,5.898,4.174,8.853,6.246C65.949,91.145,66.449,91.239,67.248,91.555z
				 M96.418,47.125c0.053-0.512,0.311-1.174,0.145-1.698c-1.071-3.389-2.066-6.821-3.438-10.086c-0.698-1.66-1.933-3.97-3.276-4.256
				c-1.925-0.408-2.837-1.201-3.699-2.708c-0.26-0.451-1.139-0.911-1.562-0.782c-0.426,0.129-0.79,0.956-0.896,1.532
				c-0.101,0.516,0.11,1.136,0.313,1.658c1.97,5.022,3.952,10.037,5.96,15.043c0.323,0.802,0.785,1.546,1.184,2.317
				c0.196-0.085,0.396-0.169,0.592-0.253c0.801-4.609-3.821-8.015-2.926-12.682c0.584,0.757,0.99,1.582,1.381,2.417
				c0.518,1.113,1.002,2.242,1.533,3.348c0.6,1.251,1.096,2.59,1.898,3.693C94.284,45.578,95.331,46.197,96.418,47.125z
				 M59.783,31.337c-0.06,0.229-0.12,0.456-0.18,0.683c0.761,0.267,1.59,0.871,2.27,0.73c1.525-0.315,3.008-0.929,4.441-1.574
				c0.498-0.223,0.802-0.894,1.192-1.359c-0.516-0.25-1.127-0.82-1.53-0.697C63.884,29.762,61.843,30.581,59.783,31.337z
				 M83.975,75.329c-1.104,0.528-2.209,1.057-3.312,1.584C82.419,77.843,83.582,77.447,83.975,75.329z M48.103,86.492
				c-0.37,0.144-0.738,0.287-1.108,0.433c0.414,0.927,0.828,1.853,1.242,2.777c0.26-0.099,0.519-0.198,0.778-0.298
				C48.711,88.436,48.407,87.464,48.103,86.492z"/>
			<path d="M52.731,16.638c-1.464,1.333-2.851,1.879-4.282,0.43c-0.253-0.256-0.121-1.43-0.009-1.455
				C49.953,15.276,51.538,14.874,52.731,16.638z"/>
			<path d="M46.915,11.127c0.469,2.443-0.41,3.033-1.726,3.006c-0.417-0.009-0.822-0.627-1.232-0.965
				C44.836,12.561,45.717,11.954,46.915,11.127z"/>
			<path d="M97.988,87.473c0.203-1.074,0.406-2.148,0.607-3.225c0.242,0.038,0.486,0.076,0.729,0.113
				c-0.132,1.091-0.263,2.181-0.394,3.271C98.619,87.579,98.305,87.525,97.988,87.473z"/>
			<path fill="#FFFFFF" fill-opacity="0" d="M67.248,91.555c-0.799-0.313-1.299-0.412-1.682-0.681
				c-2.955-2.072-6.49-3.289-8.853-6.245c-0.286-0.355-0.918-0.771-1.265-0.68c-2.284,0.611-3.755-0.77-5.471-1.895
				c-1.832-1.201-4.026-1.824-5.882-2.996c-1.327-0.841-2.357-2.166-3.52-3.274c0.149-0.249,0.299-0.499,0.448-0.747
				c1.442,0.492,2.886,0.982,4.325,1.482c1.562,0.543,3.083,1.275,4.686,1.612c3.308,0.694,3.325,0.608,3.95,3.341
				c2.553-1.014,5.292-1.734,7.627-3.147c1.687-1.021,2.881-2.916,4.201-4.503c0.574-0.691,0.91-1.588,1.15-2.025
				c1.516,1.303,2.883,2.532,4.309,3.689c1.15,0.938,0.688,1.798-0.071,2.59c-1.487,1.548-3.267,2.872-4.466,4.615
				c-0.67,0.974-0.623,2.617-0.525,3.933C66.322,88.175,66.837,89.695,67.248,91.555z"/>
			<path opacity="0" fill="#FFFFFF" fill-opacity="0" d="M96.418,47.125c-1.087-0.928-2.134-1.548-2.795-2.456
				c-0.805-1.103-1.301-2.442-1.898-3.694c-0.533-1.106-1.018-2.235-1.533-3.348c-0.391-0.835-0.799-1.66-1.383-2.417
				c-0.896,4.667,3.728,8.073,2.928,12.682c-0.196,0.084-0.396,0.169-0.594,0.253c-0.396-0.771-0.856-1.515-1.182-2.317
				c-2.008-5.005-3.99-10.021-5.96-15.042c-0.204-0.521-0.414-1.143-0.315-1.658c0.108-0.577,0.475-1.403,0.898-1.533
				c0.424-0.128,1.303,0.332,1.562,0.783c0.861,1.507,1.773,2.3,3.696,2.708c1.349,0.286,2.58,2.596,3.278,4.255
				c1.372,3.265,2.365,6.698,3.438,10.087C96.729,45.951,96.471,46.614,96.418,47.125z"/>
			<path fill="#FFFFFF" fill-opacity="0" d="M59.783,31.337c2.06-0.756,4.101-1.576,6.193-2.217c0.404-0.124,1.017,0.447,1.53,0.697
				c-0.394,0.466-0.694,1.136-1.192,1.359c-1.434,0.645-2.917,1.259-4.441,1.574c-0.679,0.141-1.509-0.463-2.27-0.73
				C59.663,31.793,59.723,31.566,59.783,31.337z"/>
			<path fill="#FFFFFF" fill-opacity="0" d="M83.975,75.329c-0.393,2.118-1.556,2.514-3.312,1.584
				C81.766,76.386,82.871,75.857,83.975,75.329z"/>
			<path fill="#FFFFFF" fill-opacity="0" d="M48.103,86.492c0.304,0.972,0.609,1.941,0.912,2.912
				c-0.259,0.1-0.519,0.199-0.778,0.298c-0.414-0.927-0.828-1.853-1.242-2.777C47.364,86.781,47.733,86.637,48.103,86.492z"/>
		</g>
	</g>
	<g>
		<path d="M64,128C28.71,128,0,99.289,0,64C0,28.71,28.71,0,64,0s64,28.71,64,64C127.999,99.289,99.289,128,64,128z M64,4.398
			C31.097,4.398,4.33,31.135,4.33,64s26.767,59.602,59.669,59.602c32.903,0,59.67-26.735,59.67-59.602
			C123.67,31.136,96.902,4.398,64,4.398z"/>
	</g>
</g>
<g id="Calque_2" display="none">
</g>
</svg>
